<?xml version="1.0" standalone="no"?>
<!DOCTYPE svg PUBLIC "-//W3C//DTD SVG 20010904//EN"
 "http://www.w3.org/TR/2001/REC-SVG-20010904/DTD/svg10.dtd">
<svg version="1.0" xmlns="http://www.w3.org/2000/svg"
 width="260.000000pt" height="260.000000pt" viewBox="0 0 260.000000 260.000000"
 preserveAspectRatio="xMidYMid meet">
<metadata>
Created by potrace 1.14, written by Peter Selinger 2001-2017
</metadata>
<g transform="translate(0.000000,260.000000) scale(0.100000,-0.100000)"
fill="#000000" stroke="none">
<path d="M1590 2527 c-36 -14 -72 -27 -80 -30 -8 -3 -73 -27 -145 -52 -71 -25
-139 -50 -150 -55 -11 -5 -85 -32 -165 -61 -382 -136 -394 -141 -416 -174 -29
-44 -28 -86 4 -170 17 -44 38 -102 48 -128 l17 -48 42 45 c32 33 55 48 96 60
77 21 111 15 294 -53 61 -23 117 -44 125 -46 8 -2 75 -27 147 -54 142 -52 142
-52 233 -14 8 3 17 7 20 7 3 1 10 4 15 7 6 4 35 14 65 24 196 62 247 103 237
188 -4 35 -50 168 -86 252 -18 42 -50 132 -67 190 -38 125 -108 158 -234 112z"/>
<path d="M835 1808 c-42 -31 -52 -46 -66 -98 -7 -25 -45 -132 -86 -239 -88
-232 -92 -271 -39 -324 19 -19 45 -37 60 -41 14 -3 38 -11 53 -18 15 -6 33
-12 38 -13 6 -2 40 -14 75 -28 112 -43 621 -228 714 -259 143 -48 203 -21 244
112 11 36 50 143 86 238 110 288 104 301 -169 400 -93 33 -201 73 -240 87 -38
15 -81 30 -95 35 -14 4 -63 22 -110 40 -47 17 -110 39 -140 50 -30 10 -89 31
-130 47 -97 37 -155 41 -195 11z"/>
<path d="M1030 873 c-8 -3 -57 -21 -108 -40 -52 -19 -101 -36 -110 -38 -59
-14 -156 -63 -174 -87 -24 -35 -34 -92 -20 -121 6 -12 24 -58 40 -102 16 -44
45 -123 64 -175 20 -52 42 -114 49 -137 40 -138 104 -154 311 -77 68 25 155
57 193 71 39 14 86 31 105 39 19 7 125 45 235 84 330 117 348 126 361 195 7
41 3 59 -68 241 l-21 56 -38 -41 c-41 -43 -85 -66 -141 -74 -36 -4 -139 19
-198 45 -19 8 -89 34 -155 58 -66 23 -129 46 -140 51 -19 9 -168 60 -169 58
-1 0 -8 -3 -16 -6z"/>
</g>
</svg>
