<?xml version="1.0" encoding="utf-8"?>
<!-- Generator: Adobe Illustrator 26.3.1, SVG Export Plug-In . SVG Version: 6.00 Build 0)  -->
<svg version="1.1" id="Layer_1" xmlns="http://www.w3.org/2000/svg" xmlns:xlink="http://www.w3.org/1999/xlink" x="0px" y="0px"
	 viewBox="0 0 150.3 48" style="enable-background:new 0 0 150.3 48;" xml:space="preserve">
<style type="text/css">
	.st0{fill:#3A3A3A;}
</style>
<g>
	<path class="st0" d="M13.5,19.2c-0.7-1.2-2.6-2.2-4.8-2.2c-2.8,0-4.2,1.2-4.2,2.7c0,1.7,2.1,2.2,4.5,2.5c4.2,0.5,8.1,1.6,8.1,6.4
		c0,4.5-4,6.4-8.4,6.4c-4.1,0-7.2-1.3-8.7-4.9l3.1-1.6c0.9,2.2,3.2,3.2,5.6,3.2c2.4,0,4.6-0.8,4.6-3c0-1.9-2-2.7-4.6-2.9
		c-4.1-0.5-7.9-1.6-7.9-6.1c0-4.1,4.1-5.8,7.8-5.8c3.1,0,6.4,0.9,7.9,4L13.5,19.2z"/>
	<path class="st0" d="M23.9,16.3v4h3.9v3h-3.9v6.1c0,1.3,0.8,2,1.8,2c0.6,0,1.2-0.2,1.7-0.4l1,3c-1,0.4-1.8,0.6-2.9,0.6
		c-3.1,0.1-5.1-1.6-5.1-5.2v-6.1h-2.6v-3h2.6v-3.6L23.9,16.3z"/>
	<path class="st0" d="M43.5,27.3c0,4.1-2.8,7.3-7.3,7.3s-7.3-3.3-7.3-7.3c0-4,2.8-7.3,7.3-7.3C40.7,20,43.5,23.3,43.5,27.3z
		 M32.4,27.3c0,2.1,1.3,4.2,3.8,4.2s3.8-2,3.8-4.2c0-2.1-1.5-4.2-3.8-4.2C33.7,23.1,32.4,25.2,32.4,27.3z"/>
	<path class="st0" d="M48.6,20.3l0.3,1.6c1.1-1.7,2.5-2,4-2c1.5,0,2.9,0.6,3.6,1.3l-1.6,3c-0.7-0.6-1.4-0.9-2.5-0.9
		c-1.8,0-3.5,1-3.5,3.6v7.5h-3.5V20.3H48.6z"/>
	<path class="st0" d="M72.2,20.3l-8.9,20.6h-3.8l2.9-6.7l-5.6-13.9h4.1l2.1,6.1l1.3,4l1.5-3.9l2.6-6.2L72.2,20.3L72.2,20.3z"/>
	<path class="st0" d="M76.8,14.3v7.8c0.8-1.5,3.1-2.3,4.6-2.3c4.1,0,7.2,2.5,7.2,7.4c0,4.6-3.1,7.4-7.3,7.4c-1.7,0-3.5-0.6-4.6-2.3
		l-0.2,1.9h-3.3v-20H76.8z M77.1,27.3c0,2.5,1.9,4.2,4.1,4.2c2.2,0,4-1.7,4-4.2c0-2.5-1.8-4.1-4-4.1C79,23.2,77.1,24.8,77.1,27.3z"
		/>
	<path class="st0" d="M104.8,27.3c0,4.1-2.8,7.3-7.3,7.3c-4.6,0-7.3-3.3-7.3-7.3c0-4,2.8-7.3,7.3-7.3
		C101.9,20,104.8,23.3,104.8,27.3z M93.6,27.3c0,2.1,1.3,4.2,3.8,4.2c2.5,0,3.8-2,3.8-4.2c0-2.1-1.5-4.2-3.8-4.2
		C95,23.1,93.6,25.2,93.6,27.3z"/>
	<path class="st0" d="M118.3,20.3h3.3v14.1h-3.3l-0.2-2.1c-0.8,1.7-3,2.5-4.6,2.5c-4.2,0-7.3-2.5-7.3-7.5c0-4.9,3.2-7.4,7.3-7.4
		c1.9,0,3.7,0.9,4.5,2.3L118.3,20.3z M109.8,27.3c0,2.7,1.9,4.3,4.2,4.3c5.5,0,5.5-8.6,0-8.6C111.7,23,109.8,24.6,109.8,27.3z"/>
	<path class="st0" d="M127.4,20.3l0.3,1.6c1.1-1.7,2.5-2,4-2c1.5,0,2.9,0.6,3.6,1.3l-1.6,3c-0.7-0.6-1.4-0.9-2.5-0.9
		c-1.8,0-3.5,1-3.5,3.6v7.5h-3.5V20.3H127.4z"/>
	<path class="st0" d="M150.3,14.3v20H147l-0.2-1.9c-1.1,1.7-2.8,2.3-4.6,2.3c-4.2,0-7.3-2.7-7.3-7.4c0-4.9,3.1-7.4,7.2-7.4
		c1.5,0,3.8,0.8,4.6,2.3v-7.9H150.3z M138.5,27.3c0,2.5,1.8,4.2,4,4.2c2.2,0,4.1-1.6,4.1-4.2c0-2.5-1.9-4.1-4.1-4.1
		C140.3,23.2,138.5,24.7,138.5,27.3z"/>
</g>
</svg>
