<?xml version="1.0" encoding="utf-8"?>
<!-- Generator: Adobe Illustrator 26.3.1, SVG Export Plug-In . SVG Version: 6.00 Build 0)  -->
<svg version="1.1" id="Layer_1" xmlns="http://www.w3.org/2000/svg" xmlns:xlink="http://www.w3.org/1999/xlink" x="0px" y="0px"
	 viewBox="0 0 26.3 48" style="enable-background:new 0 0 26.3 48;" xml:space="preserve">
<style type="text/css">
	.st0{fill:#606060;}
	.st1{fill:#E13C3D;}
	.st2{fill:#4EAEC3;}
	.st3{fill:#FECD2A;}
</style>
<g>
	<g>
		<path class="st0" d="M8.5,31.9l-6.7,2.4c-0.6,0.2-1.1,0.7-1.4,1.3S0,37,0.3,37.6l3.2,8.8c0.4,1,1.3,1.7,2.4,1.7
			c0.3,0,0.6-0.1,0.9-0.2l17.9-6.5c0.6-0.2,1.1-0.7,1.4-1.3s0.3-1.3,0.1-1.9l-1.6-4.5c-0.8,1.5-2.2,2.4-3.9,2.4
			c-0.5,0-1-0.1-1.5-0.3L8.5,31.9z"/>
	</g>
	<g>
		<path class="st0" d="M5.8,12c0.5,0,1,0.1,1.5,0.3l10.5,3.8l6.7-2.4c0.6-0.2,1.1-0.7,1.4-1.3c0.3-0.6,0.3-1.3,0.1-1.9l-3.2-8.8
			c-0.4-1-1.3-1.6-2.4-1.6c-0.3,0-0.6,0.1-0.9,0.2L1.8,6.7c-1.3,0.5-2,1.9-1.5,3.2l1.6,4.5C2.6,12.9,4.1,12,5.8,12z"/>
	</g>
	<path class="st1" d="M8.5,31.9l-6.7,2.4c-0.6,0.2-1.1,0.7-1.4,1.3S0,37,0.3,37.6l3.2,8.8c0.4,1,1.3,1.7,2.4,1.7
		c0.3,0,0.6-0.1,0.9-0.2l17.9-6.5c0.6-0.2,1.1-0.7,1.4-1.3s0.3-1.3,0.1-1.9l-1.6-4.5c-0.8,1.5-2.2,2.4-3.9,2.4c-0.5,0-1-0.1-1.5-0.3
		L8.5,31.9z"/>
	<path class="st2" d="M5.8,12c0.5,0,1,0.1,1.5,0.3l10.5,3.8l6.7-2.4c0.6-0.2,1.1-0.7,1.4-1.3c0.3-0.6,0.3-1.3,0.1-1.9l-3.2-8.8
		c-0.4-1-1.3-1.6-2.4-1.6c-0.3,0-0.6,0.1-0.9,0.2L1.8,6.7c-1.3,0.5-2,1.9-1.5,3.2l1.6,4.5C2.6,12.9,4.1,12,5.8,12z"/>
	<path class="st3" d="M5.8,13.7c0.3,0,0.6,0.1,0.9,0.2l8.8,3.2l9.1,3.3c1.4,0.5,2.1,2,1.6,3.4l-2.6,7.1L23,32.5
		c-0.4,1.1-1.4,1.7-2.5,1.7c-0.3,0-0.6-0.1-0.9-0.2l-8.7-3.2l-9.1-3.3c-0.7-0.2-1.2-0.7-1.5-1.4c-0.3-0.6-0.3-1.4-0.1-2l2.6-7.1
		l0.6-1.6C3.7,14.4,4.7,13.7,5.8,13.7"/>
</g>
</svg>
