<?xml version="1.0" encoding="utf-8"?>
<!-- Generator: Adobe Illustrator 26.3.1, SVG Export Plug-In . SVG Version: 6.00 Build 0)  -->
<svg version="1.1" id="Layer_1" xmlns="http://www.w3.org/2000/svg" xmlns:xlink="http://www.w3.org/1999/xlink" x="0px" y="0px"
	 viewBox="0 0 188 48" style="enable-background:new 0 0 188 48;" xml:space="preserve">
<style type="text/css">
	.st0{fill:#3A3A3A;}
	.st1{fill:#606060;}
	.st2{fill:#E13C3D;}
	.st3{fill:#4EAEC3;}
	.st4{fill:#FECD2A;}
</style>
<g>
	<path class="st0" d="M51.2,19.2c-0.7-1.2-2.6-2.2-4.8-2.2c-2.8,0-4.2,1.2-4.2,2.7c0,1.7,2.1,2.2,4.5,2.5c4.2,0.5,8.1,1.6,8.1,6.4
		c0,4.5-4,6.4-8.4,6.4c-4.1,0-7.2-1.3-8.7-4.9l3.1-1.6c0.9,2.2,3.2,3.2,5.6,3.2c2.4,0,4.6-0.8,4.6-3c0-1.9-2-2.7-4.6-2.9
		c-4.1-0.5-7.9-1.6-7.9-6.1c0-4.1,4.1-5.8,7.8-5.8c3.1,0,6.4,0.9,7.9,4L51.2,19.2z"/>
	<path class="st0" d="M61.6,16.3v4h3.9v3h-3.9v6.1c0,1.3,0.8,2,1.8,2c0.6,0,1.2-0.2,1.7-0.4l1,3c-1,0.4-1.8,0.6-2.9,0.6
		c-3.1,0.1-5.1-1.6-5.1-5.2v-6.1h-2.6v-3h2.6v-3.6L61.6,16.3z"/>
	<path class="st0" d="M81.2,27.3c0,4.1-2.8,7.3-7.3,7.3c-4.6,0-7.3-3.3-7.3-7.3c0-4,2.8-7.3,7.3-7.3C78.4,20,81.2,23.3,81.2,27.3z
		 M70.1,27.3c0,2.1,1.3,4.2,3.8,4.2s3.8-2,3.8-4.2c0-2.1-1.5-4.2-3.8-4.2C71.4,23.1,70.1,25.2,70.1,27.3z"/>
	<path class="st0" d="M86.3,20.3l0.3,1.6c1.1-1.7,2.5-2,4-2c1.5,0,2.9,0.6,3.6,1.3l-1.6,3c-0.7-0.6-1.4-0.9-2.5-0.9
		c-1.8,0-3.5,1-3.5,3.6v7.5H83V20.3H86.3z"/>
	<path class="st0" d="M109.9,20.3L101,40.9h-3.8l2.9-6.7l-5.6-13.9h4.1l2.1,6.1l1.3,4l1.5-3.9l2.6-6.2L109.9,20.3L109.9,20.3z"/>
	<path class="st0" d="M114.5,14.3v7.8c0.8-1.5,3.1-2.3,4.6-2.3c4.1,0,7.2,2.5,7.2,7.4c0,4.6-3.1,7.4-7.3,7.4c-1.7,0-3.5-0.6-4.6-2.3
		l-0.2,1.9H111v-20H114.5z M114.8,27.3c0,2.5,1.9,4.2,4.1,4.2c2.2,0,4-1.7,4-4.2c0-2.5-1.8-4.1-4-4.1
		C116.7,23.2,114.8,24.8,114.8,27.3z"/>
	<path class="st0" d="M142.5,27.3c0,4.1-2.8,7.3-7.3,7.3s-7.3-3.3-7.3-7.3c0-4,2.8-7.3,7.3-7.3C139.6,20,142.5,23.3,142.5,27.3z
		 M131.3,27.3c0,2.1,1.3,4.2,3.8,4.2c2.5,0,3.8-2,3.8-4.2c0-2.1-1.5-4.2-3.8-4.2C132.7,23.1,131.3,25.2,131.3,27.3z"/>
	<path class="st0" d="M156,20.3h3.3v14.1h-3.3l-0.2-2.1c-0.8,1.7-3,2.5-4.6,2.5c-4.2,0-7.3-2.5-7.3-7.5c0-4.9,3.2-7.4,7.3-7.4
		c1.9,0,3.7,0.9,4.5,2.3L156,20.3z M147.5,27.3c0,2.7,1.9,4.3,4.2,4.3c5.5,0,5.5-8.6,0-8.6C149.4,23,147.5,24.6,147.5,27.3z"/>
	<path class="st0" d="M165.1,20.3l0.3,1.6c1.1-1.7,2.5-2,4-2c1.5,0,2.9,0.6,3.6,1.3l-1.6,3c-0.7-0.6-1.4-0.9-2.5-0.9
		c-1.8,0-3.5,1-3.5,3.6v7.5h-3.5V20.3H165.1z"/>
	<path class="st0" d="M188,14.3v20h-3.3l-0.2-1.9c-1.1,1.7-2.8,2.3-4.6,2.3c-4.2,0-7.3-2.7-7.3-7.4c0-4.9,3.1-7.4,7.2-7.4
		c1.5,0,3.8,0.8,4.6,2.3v-7.9H188z M176.2,27.3c0,2.5,1.8,4.2,4,4.2c2.2,0,4.1-1.6,4.1-4.2c0-2.5-1.9-4.1-4.1-4.1
		C178,23.2,176.2,24.7,176.2,27.3z"/>
	<g>
		<path class="st1" d="M8.5,31.9l-6.7,2.4c-0.6,0.2-1.1,0.7-1.4,1.3S0,37,0.3,37.6l3.2,8.8c0.4,1,1.3,1.7,2.4,1.7
			c0.3,0,0.6-0.1,0.9-0.2l17.9-6.5c0.6-0.2,1.1-0.7,1.4-1.3s0.3-1.3,0.1-1.9l-1.6-4.5c-0.8,1.5-2.2,2.4-3.9,2.4
			c-0.5,0-1-0.1-1.5-0.3L8.5,31.9z"/>
	</g>
	<g>
		<path class="st1" d="M5.8,12c0.5,0,1,0.1,1.5,0.3l10.5,3.8l6.7-2.4c0.6-0.2,1.1-0.7,1.4-1.3c0.3-0.6,0.3-1.3,0.1-1.9l-3.2-8.8
			c-0.4-1-1.3-1.6-2.4-1.6c-0.3,0-0.6,0.1-0.9,0.2L1.8,6.7c-1.3,0.5-2,1.9-1.5,3.2l1.6,4.5C2.6,12.9,4.1,12,5.8,12z"/>
	</g>
	<path class="st2" d="M8.5,31.9l-6.7,2.4c-0.6,0.2-1.1,0.7-1.4,1.3S0,37,0.3,37.6l3.2,8.8c0.4,1,1.3,1.7,2.4,1.7
		c0.3,0,0.6-0.1,0.9-0.2l17.9-6.5c0.6-0.2,1.1-0.7,1.4-1.3s0.3-1.3,0.1-1.9l-1.6-4.5c-0.8,1.5-2.2,2.4-3.9,2.4c-0.5,0-1-0.1-1.5-0.3
		L8.5,31.9z"/>
	<path class="st3" d="M5.8,12c0.5,0,1,0.1,1.5,0.3l10.5,3.8l6.7-2.4c0.6-0.2,1.1-0.7,1.4-1.3c0.3-0.6,0.3-1.3,0.1-1.9l-3.2-8.8
		c-0.4-1-1.3-1.6-2.4-1.6c-0.3,0-0.6,0.1-0.9,0.2L1.8,6.7c-1.3,0.5-2,1.9-1.5,3.2l1.6,4.5C2.6,12.9,4.1,12,5.8,12z"/>
	<path class="st4" d="M5.8,13.7c0.3,0,0.6,0.1,0.9,0.2l8.8,3.2l9.1,3.3c1.4,0.5,2.1,2,1.6,3.4l-2.6,7.1L23,32.5
		c-0.4,1.1-1.4,1.7-2.5,1.7c-0.3,0-0.6-0.1-0.9-0.2l-8.7-3.2l-9.1-3.3c-0.7-0.2-1.2-0.7-1.5-1.4c-0.3-0.6-0.3-1.4-0.1-2l2.6-7.1
		l0.6-1.6C3.7,14.4,4.7,13.7,5.8,13.7"/>
</g>
</svg>
